<svg width="590" height="240" viewBox="0 0 590 240" fill="none" xmlns="http://www.w3.org/2000/svg">
<g clip-path="url(#clip0_8121_276)">
<path d="M233.613 231.705C233.613 233.076 233.266 234.154 232.57 234.939C231.879 235.725 230.916 236.117 229.682 236.117C228.42 236.117 227.445 235.732 226.758 234.963C226.074 234.189 225.732 233.1 225.732 231.693C225.732 230.299 226.076 229.219 226.764 228.453C227.451 227.684 228.428 227.299 229.693 227.299C230.924 227.299 231.885 227.689 232.576 228.471C233.268 229.252 233.613 230.33 233.613 231.705ZM226.787 231.705C226.787 232.865 227.033 233.746 227.525 234.348C228.021 234.945 228.74 235.244 229.682 235.244C230.631 235.244 231.348 234.945 231.832 234.348C232.316 233.75 232.559 232.869 232.559 231.705C232.559 230.553 232.316 229.68 231.832 229.086C231.352 228.488 230.639 228.189 229.693 228.189C228.744 228.189 228.021 228.49 227.525 229.092C227.033 229.689 226.787 230.561 226.787 231.705ZM239.777 236V231.846C239.777 231.322 239.658 230.932 239.42 230.674C239.182 230.416 238.809 230.287 238.301 230.287C237.629 230.287 237.137 230.469 236.824 230.832C236.512 231.195 236.355 231.795 236.355 232.631V236H235.383V229.578H236.174L236.332 230.457H236.379C236.578 230.141 236.857 229.896 237.217 229.725C237.576 229.549 237.977 229.461 238.418 229.461C239.191 229.461 239.773 229.648 240.164 230.023C240.555 230.395 240.75 230.99 240.75 231.811V236H239.777ZM243.727 236H242.754V226.883H243.727V236ZM246.762 236H245.789V229.578H246.762V236ZM245.707 227.838C245.707 227.615 245.762 227.453 245.871 227.352C245.98 227.246 246.117 227.193 246.281 227.193C246.438 227.193 246.572 227.246 246.686 227.352C246.799 227.457 246.855 227.619 246.855 227.838C246.855 228.057 246.799 228.221 246.686 228.33C246.572 228.436 246.438 228.488 246.281 228.488C246.117 228.488 245.98 228.436 245.871 228.33C245.762 228.221 245.707 228.057 245.707 227.838ZM253.219 236V231.846C253.219 231.322 253.1 230.932 252.861 230.674C252.623 230.416 252.25 230.287 251.742 230.287C251.07 230.287 250.578 230.469 250.266 230.832C249.953 231.195 249.797 231.795 249.797 232.631V236H248.824V229.578H249.615L249.773 230.457H249.82C250.02 230.141 250.299 229.896 250.658 229.725C251.018 229.549 251.418 229.461 251.859 229.461C252.633 229.461 253.215 229.648 253.605 230.023C253.996 230.395 254.191 230.99 254.191 231.811V236H253.219ZM258.908 236.117C257.959 236.117 257.209 235.828 256.658 235.25C256.111 234.672 255.838 233.869 255.838 232.842C255.838 231.807 256.092 230.984 256.6 230.375C257.111 229.766 257.797 229.461 258.656 229.461C259.461 229.461 260.098 229.727 260.566 230.258C261.035 230.785 261.27 231.482 261.27 232.35V232.965H256.846C256.865 233.719 257.055 234.291 257.414 234.682C257.777 235.072 258.287 235.268 258.943 235.268C259.635 235.268 260.318 235.123 260.994 234.834V235.701C260.65 235.85 260.324 235.955 260.016 236.018C259.711 236.084 259.342 236.117 258.908 236.117ZM258.645 230.275C258.129 230.275 257.717 230.443 257.408 230.779C257.104 231.115 256.924 231.58 256.869 232.174H260.227C260.227 231.561 260.09 231.092 259.816 230.768C259.543 230.439 259.152 230.275 258.645 230.275ZM271.031 233.721C271.031 234.475 270.758 235.062 270.211 235.484C269.664 235.906 268.922 236.117 267.984 236.117C266.969 236.117 266.188 235.986 265.641 235.725V234.764C265.992 234.912 266.375 235.029 266.789 235.115C267.203 235.201 267.613 235.244 268.02 235.244C268.684 235.244 269.184 235.119 269.52 234.869C269.855 234.615 270.023 234.264 270.023 233.814C270.023 233.518 269.963 233.275 269.842 233.088C269.725 232.896 269.525 232.721 269.244 232.561C268.967 232.4 268.543 232.219 267.973 232.016C267.176 231.73 266.605 231.393 266.262 231.002C265.922 230.611 265.752 230.102 265.752 229.473C265.752 228.812 266 228.287 266.496 227.896C266.992 227.506 267.648 227.311 268.465 227.311C269.316 227.311 270.1 227.467 270.814 227.779L270.504 228.646C269.797 228.35 269.109 228.201 268.441 228.201C267.914 228.201 267.502 228.314 267.205 228.541C266.908 228.768 266.76 229.082 266.76 229.484C266.76 229.781 266.814 230.025 266.924 230.217C267.033 230.404 267.217 230.578 267.475 230.738C267.736 230.895 268.135 231.068 268.67 231.26C269.568 231.58 270.186 231.924 270.521 232.291C270.861 232.658 271.031 233.135 271.031 233.721ZM276.586 236L276.393 235.086H276.346C276.025 235.488 275.705 235.762 275.385 235.906C275.068 236.047 274.672 236.117 274.195 236.117C273.559 236.117 273.059 235.953 272.695 235.625C272.336 235.297 272.156 234.83 272.156 234.225C272.156 232.928 273.193 232.248 275.268 232.186L276.357 232.15V231.752C276.357 231.248 276.248 230.877 276.029 230.639C275.814 230.396 275.469 230.275 274.992 230.275C274.457 230.275 273.852 230.439 273.176 230.768L272.877 230.023C273.193 229.852 273.539 229.717 273.914 229.619C274.293 229.521 274.672 229.473 275.051 229.473C275.816 229.473 276.383 229.643 276.75 229.982C277.121 230.322 277.307 230.867 277.307 231.617V236H276.586ZM274.389 235.314C274.994 235.314 275.469 235.148 275.812 234.816C276.16 234.484 276.334 234.02 276.334 233.422V232.842L275.361 232.883C274.588 232.91 274.029 233.031 273.686 233.246C273.346 233.457 273.176 233.787 273.176 234.236C273.176 234.588 273.281 234.855 273.492 235.039C273.707 235.223 274.006 235.314 274.389 235.314ZM280.289 236H279.316V226.883H280.289V236ZM285.064 236.117C284.115 236.117 283.365 235.828 282.814 235.25C282.268 234.672 281.994 233.869 281.994 232.842C281.994 231.807 282.248 230.984 282.756 230.375C283.268 229.766 283.953 229.461 284.812 229.461C285.617 229.461 286.254 229.727 286.723 230.258C287.191 230.785 287.426 231.482 287.426 232.35V232.965H283.002C283.021 233.719 283.211 234.291 283.57 234.682C283.934 235.072 284.443 235.268 285.1 235.268C285.791 235.268 286.475 235.123 287.15 234.834V235.701C286.807 235.85 286.48 235.955 286.172 236.018C285.867 236.084 285.498 236.117 285.064 236.117ZM284.801 230.275C284.285 230.275 283.873 230.443 283.564 230.779C283.26 231.115 283.08 231.58 283.025 232.174H286.383C286.383 231.561 286.246 231.092 285.973 230.768C285.699 230.439 285.309 230.275 284.801 230.275ZM293.232 234.248C293.232 234.846 293.01 235.307 292.564 235.631C292.119 235.955 291.494 236.117 290.689 236.117C289.838 236.117 289.174 235.982 288.697 235.713V234.811C289.006 234.967 289.336 235.09 289.688 235.18C290.043 235.27 290.385 235.314 290.713 235.314C291.221 235.314 291.611 235.234 291.885 235.074C292.158 234.91 292.295 234.662 292.295 234.33C292.295 234.08 292.186 233.867 291.967 233.691C291.752 233.512 291.33 233.301 290.701 233.059C290.104 232.836 289.678 232.643 289.424 232.479C289.174 232.311 288.986 232.121 288.861 231.91C288.74 231.699 288.68 231.447 288.68 231.154C288.68 230.631 288.893 230.219 289.318 229.918C289.744 229.613 290.328 229.461 291.07 229.461C291.762 229.461 292.438 229.602 293.098 229.883L292.752 230.674C292.107 230.408 291.523 230.275 291 230.275C290.539 230.275 290.191 230.348 289.957 230.492C289.723 230.637 289.605 230.836 289.605 231.09C289.605 231.262 289.648 231.408 289.734 231.529C289.824 231.65 289.967 231.766 290.162 231.875C290.357 231.984 290.732 232.143 291.287 232.35C292.049 232.627 292.562 232.906 292.828 233.188C293.098 233.469 293.232 233.822 293.232 234.248Z" fill="#222B45"/>
<rect x="208" y="226" width="11" height="11" rx="5.5" fill="#0095FF"/>
</g>
<g clip-path="url(#clip1_8121_276)">
<path d="M359.613 231.705C359.613 233.076 359.266 234.154 358.57 234.939C357.879 235.725 356.916 236.117 355.682 236.117C354.42 236.117 353.445 235.732 352.758 234.963C352.074 234.189 351.732 233.1 351.732 231.693C351.732 230.299 352.076 229.219 352.764 228.453C353.451 227.684 354.428 227.299 355.693 227.299C356.924 227.299 357.885 227.689 358.576 228.471C359.268 229.252 359.613 230.33 359.613 231.705ZM352.787 231.705C352.787 232.865 353.033 233.746 353.525 234.348C354.021 234.945 354.74 235.244 355.682 235.244C356.631 235.244 357.348 234.945 357.832 234.348C358.316 233.75 358.559 232.869 358.559 231.705C358.559 230.553 358.316 229.68 357.832 229.086C357.352 228.488 356.639 228.189 355.693 228.189C354.744 228.189 354.021 228.49 353.525 229.092C353.033 229.689 352.787 230.561 352.787 231.705ZM368.309 230.334H366.674V236H365.701V230.334H364.553V229.895L365.701 229.543V229.186C365.701 227.607 366.391 226.818 367.77 226.818C368.109 226.818 368.508 226.887 368.965 227.023L368.713 227.803C368.338 227.682 368.018 227.621 367.752 227.621C367.385 227.621 367.113 227.744 366.938 227.99C366.762 228.232 366.674 228.623 366.674 229.162V229.578H368.309V230.334ZM364.277 230.334H362.643V236H361.67V230.334H360.521V229.895L361.67 229.543V229.186C361.67 227.607 362.359 226.818 363.738 226.818C364.078 226.818 364.477 226.887 364.934 227.023L364.682 227.803C364.307 227.682 363.986 227.621 363.721 227.621C363.354 227.621 363.082 227.744 362.906 227.99C362.73 228.232 362.643 228.623 362.643 229.162V229.578H364.277V230.334ZM370.494 236H369.521V226.883H370.494V236ZM373.547 236H372.574V229.578H373.547V236ZM372.492 227.838C372.492 227.615 372.547 227.453 372.656 227.352C372.766 227.246 372.902 227.193 373.066 227.193C373.223 227.193 373.357 227.246 373.471 227.352C373.584 227.457 373.641 227.619 373.641 227.838C373.641 228.057 373.584 228.221 373.471 228.33C373.357 228.436 373.223 228.488 373.066 228.488C372.902 228.488 372.766 228.436 372.656 228.33C372.547 228.221 372.492 228.057 372.492 227.838ZM380.004 236V231.846C380.004 231.322 379.885 230.932 379.646 230.674C379.408 230.416 379.035 230.287 378.527 230.287C377.855 230.287 377.363 230.469 377.051 230.832C376.738 231.195 376.582 231.795 376.582 232.631V236H375.609V229.578H376.4L376.559 230.457H376.605C376.805 230.141 377.084 229.896 377.443 229.725C377.803 229.549 378.203 229.461 378.645 229.461C379.418 229.461 380 229.648 380.391 230.023C380.781 230.395 380.977 230.99 380.977 231.811V236H380.004ZM385.693 236.117C384.744 236.117 383.994 235.828 383.443 235.25C382.896 234.672 382.623 233.869 382.623 232.842C382.623 231.807 382.877 230.984 383.385 230.375C383.896 229.766 384.582 229.461 385.441 229.461C386.246 229.461 386.883 229.727 387.352 230.258C387.82 230.785 388.055 231.482 388.055 232.35V232.965H383.631C383.65 233.719 383.84 234.291 384.199 234.682C384.562 235.072 385.072 235.268 385.729 235.268C386.42 235.268 387.104 235.123 387.779 234.834V235.701C387.436 235.85 387.109 235.955 386.801 236.018C386.496 236.084 386.127 236.117 385.693 236.117ZM385.43 230.275C384.914 230.275 384.502 230.443 384.193 230.779C383.889 231.115 383.709 231.58 383.654 232.174H387.012C387.012 231.561 386.875 231.092 386.602 230.768C386.328 230.439 385.938 230.275 385.43 230.275ZM397.816 233.721C397.816 234.475 397.543 235.062 396.996 235.484C396.449 235.906 395.707 236.117 394.77 236.117C393.754 236.117 392.973 235.986 392.426 235.725V234.764C392.777 234.912 393.16 235.029 393.574 235.115C393.988 235.201 394.398 235.244 394.805 235.244C395.469 235.244 395.969 235.119 396.305 234.869C396.641 234.615 396.809 234.264 396.809 233.814C396.809 233.518 396.748 233.275 396.627 233.088C396.51 232.896 396.311 232.721 396.029 232.561C395.752 232.4 395.328 232.219 394.758 232.016C393.961 231.73 393.391 231.393 393.047 231.002C392.707 230.611 392.537 230.102 392.537 229.473C392.537 228.812 392.785 228.287 393.281 227.896C393.777 227.506 394.434 227.311 395.25 227.311C396.102 227.311 396.885 227.467 397.6 227.779L397.289 228.646C396.582 228.35 395.895 228.201 395.227 228.201C394.699 228.201 394.287 228.314 393.99 228.541C393.693 228.768 393.545 229.082 393.545 229.484C393.545 229.781 393.6 230.025 393.709 230.217C393.818 230.404 394.002 230.578 394.26 230.738C394.521 230.895 394.92 231.068 395.455 231.26C396.354 231.58 396.971 231.924 397.307 232.291C397.646 232.658 397.816 233.135 397.816 233.721ZM403.371 236L403.178 235.086H403.131C402.811 235.488 402.49 235.762 402.17 235.906C401.854 236.047 401.457 236.117 400.98 236.117C400.344 236.117 399.844 235.953 399.48 235.625C399.121 235.297 398.941 234.83 398.941 234.225C398.941 232.928 399.979 232.248 402.053 232.186L403.143 232.15V231.752C403.143 231.248 403.033 230.877 402.814 230.639C402.6 230.396 402.254 230.275 401.777 230.275C401.242 230.275 400.637 230.439 399.961 230.768L399.662 230.023C399.979 229.852 400.324 229.717 400.699 229.619C401.078 229.521 401.457 229.473 401.836 229.473C402.602 229.473 403.168 229.643 403.535 229.982C403.906 230.322 404.092 230.867 404.092 231.617V236H403.371ZM401.174 235.314C401.779 235.314 402.254 235.148 402.598 234.816C402.945 234.484 403.119 234.02 403.119 233.422V232.842L402.146 232.883C401.373 232.91 400.814 233.031 400.471 233.246C400.131 233.457 399.961 233.787 399.961 234.236C399.961 234.588 400.066 234.855 400.277 235.039C400.492 235.223 400.791 235.314 401.174 235.314ZM407.074 236H406.102V226.883H407.074V236ZM411.85 236.117C410.9 236.117 410.15 235.828 409.6 235.25C409.053 234.672 408.779 233.869 408.779 232.842C408.779 231.807 409.033 230.984 409.541 230.375C410.053 229.766 410.738 229.461 411.598 229.461C412.402 229.461 413.039 229.727 413.508 230.258C413.977 230.785 414.211 231.482 414.211 232.35V232.965H409.787C409.807 233.719 409.996 234.291 410.355 234.682C410.719 235.072 411.229 235.268 411.885 235.268C412.576 235.268 413.26 235.123 413.936 234.834V235.701C413.592 235.85 413.266 235.955 412.957 236.018C412.652 236.084 412.283 236.117 411.85 236.117ZM411.586 230.275C411.07 230.275 410.658 230.443 410.35 230.779C410.045 231.115 409.865 231.58 409.811 232.174H413.168C413.168 231.561 413.031 231.092 412.758 230.768C412.484 230.439 412.094 230.275 411.586 230.275ZM420.018 234.248C420.018 234.846 419.795 235.307 419.35 235.631C418.904 235.955 418.279 236.117 417.475 236.117C416.623 236.117 415.959 235.982 415.482 235.713V234.811C415.791 234.967 416.121 235.09 416.473 235.18C416.828 235.27 417.17 235.314 417.498 235.314C418.006 235.314 418.396 235.234 418.67 235.074C418.943 234.91 419.08 234.662 419.08 234.33C419.08 234.08 418.971 233.867 418.752 233.691C418.537 233.512 418.115 233.301 417.486 233.059C416.889 232.836 416.463 232.643 416.209 232.479C415.959 232.311 415.771 232.121 415.646 231.91C415.525 231.699 415.465 231.447 415.465 231.154C415.465 230.631 415.678 230.219 416.104 229.918C416.529 229.613 417.113 229.461 417.855 229.461C418.547 229.461 419.223 229.602 419.883 229.883L419.537 230.674C418.893 230.408 418.309 230.275 417.785 230.275C417.324 230.275 416.977 230.348 416.742 230.492C416.508 230.637 416.391 230.836 416.391 231.09C416.391 231.262 416.434 231.408 416.52 231.529C416.609 231.65 416.752 231.766 416.947 231.875C417.143 231.984 417.518 232.143 418.072 232.35C418.834 232.627 419.348 232.906 419.613 233.188C419.883 233.469 420.018 233.822 420.018 234.248Z" fill="#222B45"/>
<rect x="334" y="226" width="11" height="11" rx="5.5" fill="#00E096"/>
</g>
<path d="M39 136.5H589" stroke="#EFF1F3" stroke-linecap="round"/>
<path d="M39 167.5H589" stroke="#EFF1F3" stroke-linecap="round"/>
<path d="M39 104.5H589" stroke="#EFF1F3" stroke-linecap="round"/>
<path d="M39 72.5H589" stroke="#EFF1F3" stroke-linecap="round"/>
<path d="M39 40.5H589" stroke="#EFF1F3" stroke-linecap="round"/>
<path d="M39 8.5H589" stroke="#EFF1F3" stroke-linecap="round"/>
<path d="M0.612 11.904H6.384V10.992H2.256C3.804 9.732 6.132 7.896 6.132 5.736C6.132 4.128 5.076 3.168 3.444 3.168C1.884 3.168 0.72 4.128 0.648 5.976H1.704C1.752 4.884 2.328 4.104 3.456 4.104C4.632 4.104 5.052 4.824 5.052 5.784C5.052 7.56 2.892 9.288 0.612 11.124V11.904ZM7.95834 3.312V8.208H8.99034C9.27834 7.524 9.91434 7.068 10.7903 7.068C12.0503 7.068 12.6863 7.788 12.6863 9.024C12.6863 10.212 12.0983 11.1 10.7783 11.1C9.75834 11.1 9.05034 10.56 8.84634 9.648H7.77834C7.99434 11.052 9.03834 12.024 10.7663 12.024C12.7943 12.024 13.7303 10.68 13.7303 9C13.7303 7.656 13.0583 6.132 10.9463 6.132C10.0943 6.132 9.32634 6.516 8.96634 7.008V4.272H13.1783V3.312H7.95834ZM15.3615 12H16.4535V9.096L19.0335 12H20.5215L17.4135 8.7L20.5095 5.424H18.9855L16.4535 8.34V3.12H15.3615V12Z" fill="#7B91B0"/>
<path d="M0.612 43.904H6.384V42.992H2.256C3.804 41.732 6.132 39.896 6.132 37.736C6.132 36.128 5.076 35.168 3.444 35.168C1.884 35.168 0.72 36.128 0.648 37.976H1.704C1.752 36.884 2.328 36.104 3.456 36.104C4.632 36.104 5.052 36.824 5.052 37.784C5.052 39.56 2.892 41.288 0.612 43.124V43.904ZM7.64634 39.572C7.64634 42.092 8.27034 44 10.6703 44C13.0583 44 13.6823 42.092 13.6823 39.572C13.6823 37.088 13.0583 35.192 10.6703 35.192C8.27034 35.192 7.64634 37.088 7.64634 39.572ZM12.6023 39.572C12.6023 41.444 12.3743 43.004 10.6703 43.004C8.95434 43.004 8.72634 41.444 8.72634 39.572C8.72634 37.772 8.95434 36.188 10.6703 36.188C12.3743 36.188 12.6023 37.772 12.6023 39.572ZM15.3615 44H16.4535V41.096L19.0335 44H20.5215L17.4135 40.7L20.5095 37.424H18.9855L16.4535 40.34V35.12H15.3615V44Z" fill="#7B91B0"/>
<path d="M1.608 108H2.712V99.324H0.456V100.32H1.608V108ZM4.58775 103.572C4.58775 106.092 5.21175 108 7.61175 108C9.99975 108 10.6237 106.092 10.6237 103.572C10.6237 101.088 9.99975 99.192 7.61175 99.192C5.21175 99.192 4.58775 101.088 4.58775 103.572ZM9.54375 103.572C9.54375 105.444 9.31575 107.004 7.61175 107.004C5.89575 107.004 5.66775 105.444 5.66775 103.572C5.66775 101.772 5.89575 100.188 7.61175 100.188C9.31575 100.188 9.54375 101.772 9.54375 103.572ZM12.3029 108H13.3949V105.096L15.9749 108H17.4629L14.3549 104.7L17.4509 101.424H15.9269L13.3949 104.34V99.12H12.3029V108Z" fill="#7B91B0"/>
<path d="M1.608 76H2.712V67.324H0.456V68.32H1.608V76ZM4.89975 67.312V72.208H5.93175C6.21975 71.524 6.85575 71.068 7.73175 71.068C8.99175 71.068 9.62775 71.788 9.62775 73.024C9.62775 74.212 9.03975 75.1 7.71975 75.1C6.69975 75.1 5.99175 74.56 5.78775 73.648H4.71975C4.93575 75.052 5.97975 76.024 7.70775 76.024C9.73575 76.024 10.6718 74.68 10.6718 73C10.6718 71.656 9.99975 70.132 7.88775 70.132C7.03575 70.132 6.26775 70.516 5.90775 71.008V68.272H10.1198V67.312H4.89975ZM12.3029 76H13.3949V73.096L15.9749 76H17.4629L14.3549 72.7L17.4509 69.424H15.9269L13.3949 72.34V67.12H12.3029V76Z" fill="#7B91B0"/>
<path d="M1.056 131.312V136.208H2.088C2.376 135.524 3.012 135.068 3.888 135.068C5.148 135.068 5.784 135.788 5.784 137.024C5.784 138.212 5.196 139.1 3.876 139.1C2.856 139.1 2.148 138.56 1.944 137.648H0.876C1.092 139.052 2.136 140.024 3.864 140.024C5.892 140.024 6.828 138.68 6.828 137C6.828 135.656 6.156 134.132 4.044 134.132C3.192 134.132 2.424 134.516 2.064 135.008V132.272H6.276V131.312H1.056ZM8.45916 140H9.55116V137.096L12.1312 140H13.6192L10.5112 136.7L13.6072 133.424H12.0832L9.55116 136.34V131.12H8.45916V140Z" fill="#7B91B0"/>
<path d="M0.744 167.572C0.744 170.092 1.368 172 3.768 172C6.156 172 6.78 170.092 6.78 167.572C6.78 165.088 6.156 163.192 3.768 163.192C1.368 163.192 0.744 165.088 0.744 167.572ZM5.7 167.572C5.7 169.444 5.472 171.004 3.768 171.004C2.052 171.004 1.824 169.444 1.824 167.572C1.824 165.772 2.052 164.188 3.768 164.188C5.472 164.188 5.7 165.772 5.7 167.572Z" fill="#7B91B0"/>
<path d="M54.59 196H55.682V189.796L58.454 196H59.222L61.982 189.808V196H63.074V187.696H61.91L58.838 194.56L55.766 187.696H54.59V196ZM71.166 192.7C71.166 190.624 69.714 189.316 67.842 189.316C65.982 189.316 64.518 190.624 64.518 192.7C64.518 194.788 65.934 196.108 67.794 196.108C69.666 196.108 71.166 194.788 71.166 192.7ZM65.634 192.7C65.634 191.044 66.678 190.264 67.83 190.264C68.958 190.264 70.05 191.044 70.05 192.7C70.05 194.368 68.934 195.148 67.794 195.148C66.654 195.148 65.634 194.368 65.634 192.7ZM77.4137 196H78.4937V192.124C78.4937 190.24 77.3297 189.304 75.8057 189.304C74.9177 189.304 74.1257 189.676 73.6937 190.36V189.424H72.6017V196H73.6937V192.364C73.6937 190.948 74.4617 190.252 75.5777 190.252C76.6817 190.252 77.4137 190.936 77.4137 192.28V196ZM79.8695 192.688C79.8695 194.728 81.2255 196.108 82.9895 196.108C84.1895 196.108 85.0415 195.496 85.4375 194.764V196H86.5415V187.12H85.4375V190.6C84.9815 189.844 84.0335 189.316 83.0015 189.316C81.2255 189.316 79.8695 190.636 79.8695 192.688ZM85.4375 192.7C85.4375 194.248 84.4055 195.148 83.2055 195.148C82.0055 195.148 80.9855 194.236 80.9855 192.688C80.9855 191.14 82.0055 190.264 83.2055 190.264C84.4055 190.264 85.4375 191.176 85.4375 192.7ZM87.9789 192.688C87.9789 194.728 89.3349 196.108 91.0869 196.108C92.2989 196.108 93.1509 195.484 93.5469 194.776V196H94.6509V189.424H93.5469V190.624C93.1629 189.94 92.3229 189.316 91.0989 189.316C89.3349 189.316 87.9789 190.636 87.9789 192.688ZM93.5469 192.7C93.5469 194.248 92.5149 195.148 91.3149 195.148C90.1149 195.148 89.0949 194.236 89.0949 192.688C89.0949 191.14 90.1149 190.264 91.3149 190.264C92.5149 190.264 93.5469 191.176 93.5469 192.7ZM98.9923 194.752L96.9283 189.424H95.7163L98.3683 195.928L97.0723 199.096H98.2003L102.16 189.424H101.032L98.9923 194.752Z" fill="#7B91B0"/>
<path d="M131.978 188.524H134.27V196H135.362V188.524H137.642V187.636H131.978V188.524ZM144.819 189.424H143.727V193.036C143.727 194.452 142.971 195.148 141.843 195.148C140.739 195.148 140.007 194.464 140.007 193.132V189.424H138.927V193.276C138.927 195.16 140.115 196.096 141.627 196.096C142.503 196.096 143.307 195.712 143.727 195.028V196H144.819V189.424ZM149.458 190.24C150.586 190.24 151.546 190.948 151.534 192.232H147.382C147.502 190.948 148.39 190.24 149.458 190.24ZM152.53 193.972H151.354C151.114 194.68 150.49 195.184 149.506 195.184C148.39 195.184 147.454 194.452 147.37 193.12H152.626C152.65 192.892 152.662 192.7 152.662 192.46C152.662 190.66 151.414 189.316 149.506 189.316C147.586 189.316 146.254 190.624 146.254 192.7C146.254 194.788 147.634 196.108 149.506 196.108C151.138 196.108 152.194 195.172 152.53 193.972ZM158.832 194.212C158.784 191.86 154.968 192.712 154.968 191.152C154.968 190.624 155.448 190.24 156.252 190.24C157.128 190.24 157.632 190.72 157.68 191.38H158.772C158.7 190.096 157.74 189.316 156.288 189.316C154.824 189.316 153.876 190.144 153.876 191.152C153.876 193.6 157.764 192.748 157.764 194.212C157.764 194.752 157.284 195.184 156.42 195.184C155.496 195.184 154.932 194.704 154.872 194.068H153.744C153.816 195.268 154.896 196.108 156.432 196.108C157.884 196.108 158.832 195.292 158.832 194.212ZM159.965 192.688C159.965 194.728 161.321 196.108 163.085 196.108C164.285 196.108 165.137 195.496 165.533 194.764V196H166.637V187.12H165.533V190.6C165.077 189.844 164.129 189.316 163.097 189.316C161.321 189.316 159.965 190.636 159.965 192.688ZM165.533 192.7C165.533 194.248 164.501 195.148 163.301 195.148C162.101 195.148 161.081 194.236 161.081 192.688C161.081 191.14 162.101 190.264 163.301 190.264C164.501 190.264 165.533 191.176 165.533 192.7ZM168.075 192.688C168.075 194.728 169.431 196.108 171.183 196.108C172.395 196.108 173.247 195.484 173.643 194.776V196H174.747V189.424H173.643V190.624C173.259 189.94 172.419 189.316 171.195 189.316C169.431 189.316 168.075 190.636 168.075 192.688ZM173.643 192.7C173.643 194.248 172.611 195.148 171.411 195.148C170.211 195.148 169.191 194.236 169.191 192.688C169.191 191.14 170.211 190.264 171.411 190.264C172.611 190.264 173.643 191.176 173.643 192.7ZM179.088 194.752L177.024 189.424H175.812L178.464 195.928L177.168 199.096H178.296L182.256 189.424H181.128L179.088 194.752Z" fill="#7B91B0"/>
<path d="M201.804 196.012L203.016 196L205.032 189.268L206.976 196H208.2L210.624 187.636H209.448L207.612 194.704L205.692 187.636H204.468L202.452 194.728L200.628 187.636H199.464L201.804 196.012ZM214.615 190.24C215.743 190.24 216.703 190.948 216.691 192.232H212.539C212.659 190.948 213.547 190.24 214.615 190.24ZM217.687 193.972H216.511C216.271 194.68 215.647 195.184 214.663 195.184C213.547 195.184 212.611 194.452 212.527 193.12H217.783C217.807 192.892 217.819 192.7 217.819 192.46C217.819 190.66 216.571 189.316 214.663 189.316C212.743 189.316 211.411 190.624 211.411 192.7C211.411 194.788 212.791 196.108 214.663 196.108C216.295 196.108 217.351 195.172 217.687 193.972ZM218.852 192.688C218.852 194.728 220.208 196.108 221.972 196.108C223.172 196.108 224.024 195.496 224.42 194.764V196H225.524V187.12H224.42V190.6C223.964 189.844 223.016 189.316 221.984 189.316C220.208 189.316 218.852 190.636 218.852 192.688ZM224.42 192.7C224.42 194.248 223.388 195.148 222.188 195.148C220.988 195.148 219.968 194.236 219.968 192.688C219.968 191.14 220.988 190.264 222.188 190.264C223.388 190.264 224.42 191.176 224.42 192.7ZM232.181 196H233.261V192.124C233.261 190.24 232.097 189.304 230.573 189.304C229.685 189.304 228.893 189.676 228.461 190.36V189.424H227.369V196H228.461V192.364C228.461 190.948 229.229 190.252 230.345 190.252C231.449 190.252 232.181 190.936 232.181 192.28V196ZM237.841 190.24C238.969 190.24 239.929 190.948 239.917 192.232H235.765C235.885 190.948 236.773 190.24 237.841 190.24ZM240.913 193.972H239.737C239.497 194.68 238.873 195.184 237.889 195.184C236.773 195.184 235.837 194.452 235.753 193.12H241.009C241.033 192.892 241.045 192.7 241.045 192.46C241.045 190.66 239.797 189.316 237.889 189.316C235.969 189.316 234.637 190.624 234.637 192.7C234.637 194.788 236.017 196.108 237.889 196.108C239.521 196.108 240.577 195.172 240.913 193.972ZM247.215 194.212C247.167 191.86 243.351 192.712 243.351 191.152C243.351 190.624 243.831 190.24 244.635 190.24C245.511 190.24 246.015 190.72 246.063 191.38H247.155C247.083 190.096 246.123 189.316 244.671 189.316C243.207 189.316 242.259 190.144 242.259 191.152C242.259 193.6 246.147 192.748 246.147 194.212C246.147 194.752 245.667 195.184 244.803 195.184C243.879 195.184 243.315 194.704 243.255 194.068H242.127C242.199 195.268 243.279 196.108 244.815 196.108C246.267 196.108 247.215 195.292 247.215 194.212ZM248.348 192.688C248.348 194.728 249.704 196.108 251.468 196.108C252.668 196.108 253.52 195.496 253.916 194.764V196H255.02V187.12H253.916V190.6C253.46 189.844 252.512 189.316 251.48 189.316C249.704 189.316 248.348 190.636 248.348 192.688ZM253.916 192.7C253.916 194.248 252.884 195.148 251.684 195.148C250.484 195.148 249.464 194.236 249.464 192.688C249.464 191.14 250.484 190.264 251.684 190.264C252.884 190.264 253.916 191.176 253.916 192.7ZM256.457 192.688C256.457 194.728 257.813 196.108 259.565 196.108C260.777 196.108 261.629 195.484 262.025 194.776V196H263.129V189.424H262.025V190.624C261.641 189.94 260.801 189.316 259.577 189.316C257.813 189.316 256.457 190.636 256.457 192.688ZM262.025 192.7C262.025 194.248 260.993 195.148 259.793 195.148C258.593 195.148 257.573 194.236 257.573 192.688C257.573 191.14 258.593 190.264 259.793 190.264C260.993 190.264 262.025 191.176 262.025 192.7ZM267.471 194.752L265.407 189.424H264.195L266.847 195.928L265.551 199.096H266.679L270.639 189.424H269.511L267.471 194.752Z" fill="#7B91B0"/>
<path d="M286.623 188.524H288.915V196H290.007V188.524H292.287V187.636H286.623V188.524ZM293.631 196H294.723V192.364C294.723 190.948 295.491 190.252 296.607 190.252C297.711 190.252 298.443 190.936 298.443 192.28V196H299.523V192.124C299.523 190.24 298.359 189.304 296.895 189.304C295.971 189.304 295.155 189.676 294.723 190.372V187.12H293.631V196ZM307.139 189.424H306.047V193.036C306.047 194.452 305.291 195.148 304.163 195.148C303.059 195.148 302.327 194.464 302.327 193.132V189.424H301.247V193.276C301.247 195.16 302.435 196.096 303.947 196.096C304.823 196.096 305.627 195.712 306.047 195.028V196H307.139V189.424ZM310.075 192.424C310.075 190.9 310.867 190.432 311.911 190.432H312.199V189.304C311.155 189.304 310.447 189.76 310.075 190.492V189.424H308.983V196H310.075V192.424ZM318.187 194.212C318.139 191.86 314.323 192.712 314.323 191.152C314.323 190.624 314.803 190.24 315.607 190.24C316.483 190.24 316.987 190.72 317.035 191.38H318.127C318.055 190.096 317.095 189.316 315.643 189.316C314.179 189.316 313.231 190.144 313.231 191.152C313.231 193.6 317.119 192.748 317.119 194.212C317.119 194.752 316.639 195.184 315.775 195.184C314.851 195.184 314.287 194.704 314.227 194.068H313.099C313.171 195.268 314.251 196.108 315.787 196.108C317.239 196.108 318.187 195.292 318.187 194.212ZM319.321 192.688C319.321 194.728 320.677 196.108 322.441 196.108C323.641 196.108 324.493 195.496 324.889 194.764V196H325.993V187.12H324.889V190.6C324.433 189.844 323.485 189.316 322.453 189.316C320.677 189.316 319.321 190.636 319.321 192.688ZM324.889 192.7C324.889 194.248 323.857 195.148 322.657 195.148C321.457 195.148 320.437 194.236 320.437 192.688C320.437 191.14 321.457 190.264 322.657 190.264C323.857 190.264 324.889 191.176 324.889 192.7ZM327.43 192.688C327.43 194.728 328.786 196.108 330.538 196.108C331.75 196.108 332.602 195.484 332.998 194.776V196H334.102V189.424H332.998V190.624C332.614 189.94 331.774 189.316 330.55 189.316C328.786 189.316 327.43 190.636 327.43 192.688ZM332.998 192.7C332.998 194.248 331.966 195.148 330.766 195.148C329.566 195.148 328.546 194.236 328.546 192.688C328.546 191.14 329.566 190.264 330.766 190.264C331.966 190.264 332.998 191.176 332.998 192.7ZM338.443 194.752L336.379 189.424H335.167L337.819 195.928L336.523 199.096H337.651L341.611 189.424H340.483L338.443 194.752Z" fill="#7B91B0"/>
<path d="M375.695 196H376.787V192.232H379.739V191.344H376.787V188.524H380.423V187.636H375.695V196ZM382.834 192.424C382.834 190.9 383.626 190.432 384.67 190.432H384.958V189.304C383.914 189.304 383.206 189.76 382.834 190.492V189.424H381.742V196H382.834V192.424ZM386.219 196H387.311V189.424H386.219V196ZM386.783 188.356C387.179 188.356 387.503 188.032 387.503 187.612C387.503 187.192 387.179 186.868 386.783 186.868C386.363 186.868 386.039 187.192 386.039 187.612C386.039 188.032 386.363 188.356 386.783 188.356ZM388.764 192.688C388.764 194.728 390.12 196.108 391.884 196.108C393.084 196.108 393.936 195.496 394.332 194.764V196H395.436V187.12H394.332V190.6C393.876 189.844 392.928 189.316 391.896 189.316C390.12 189.316 388.764 190.636 388.764 192.688ZM394.332 192.7C394.332 194.248 393.3 195.148 392.1 195.148C390.9 195.148 389.88 194.236 389.88 192.688C389.88 191.14 390.9 190.264 392.1 190.264C393.3 190.264 394.332 191.176 394.332 192.7ZM396.873 192.688C396.873 194.728 398.229 196.108 399.981 196.108C401.193 196.108 402.045 195.484 402.441 194.776V196H403.545V189.424H402.441V190.624C402.057 189.94 401.217 189.316 399.993 189.316C398.229 189.316 396.873 190.636 396.873 192.688ZM402.441 192.7C402.441 194.248 401.409 195.148 400.209 195.148C399.009 195.148 397.989 194.236 397.989 192.688C397.989 191.14 399.009 190.264 400.209 190.264C401.409 190.264 402.441 191.176 402.441 192.7ZM407.887 194.752L405.823 189.424H404.611L407.263 195.928L405.967 199.096H407.095L411.055 189.424H409.927L407.887 194.752Z" fill="#7B91B0"/>
<path d="M450.032 193.72C450.032 190.624 445.52 191.968 445.52 189.808C445.52 188.908 446.228 188.44 447.128 188.464C448.148 188.476 448.676 189.112 448.748 189.676H449.948C449.816 188.404 448.772 187.528 447.176 187.528C445.52 187.528 444.404 188.464 444.404 189.844C444.404 192.952 448.928 191.512 448.928 193.768C448.928 194.56 448.304 195.16 447.248 195.16C446.084 195.16 445.592 194.464 445.52 193.768H444.356C444.38 195.148 445.568 196.084 447.248 196.084C449.06 196.084 450.032 194.908 450.032 193.72ZM451.231 192.688C451.231 194.728 452.587 196.108 454.339 196.108C455.551 196.108 456.403 195.484 456.799 194.776V196H457.903V189.424H456.799V190.624C456.415 189.94 455.575 189.316 454.351 189.316C452.587 189.316 451.231 190.636 451.231 192.688ZM456.799 192.7C456.799 194.248 455.767 195.148 454.567 195.148C453.367 195.148 452.347 194.236 452.347 192.688C452.347 191.14 453.367 190.264 454.567 190.264C455.767 190.264 456.799 191.176 456.799 192.7ZM459.988 194.2C459.988 195.52 460.648 196 461.812 196H462.796V195.076H461.992C461.32 195.076 461.08 194.848 461.08 194.2V190.324H462.796V189.424H461.08V187.768H459.988V189.424H459.136V190.324H459.988V194.2ZM469.951 189.424H468.859V193.036C468.859 194.452 468.103 195.148 466.975 195.148C465.871 195.148 465.139 194.464 465.139 193.132V189.424H464.059V193.276C464.059 195.16 465.247 196.096 466.759 196.096C467.635 196.096 468.439 195.712 468.859 195.028V196H469.951V189.424ZM472.887 192.424C472.887 190.9 473.679 190.432 474.723 190.432H475.011V189.304C473.967 189.304 473.259 189.76 472.887 190.492V189.424H471.795V196H472.887V192.424ZM475.864 192.688C475.864 194.728 477.22 196.108 478.984 196.108C480.184 196.108 481.036 195.496 481.432 194.764V196H482.536V187.12H481.432V190.6C480.976 189.844 480.028 189.316 478.996 189.316C477.22 189.316 475.864 190.636 475.864 192.688ZM481.432 192.7C481.432 194.248 480.4 195.148 479.2 195.148C478 195.148 476.98 194.236 476.98 192.688C476.98 191.14 478 190.264 479.2 190.264C480.4 190.264 481.432 191.176 481.432 192.7ZM483.973 192.688C483.973 194.728 485.329 196.108 487.081 196.108C488.293 196.108 489.145 195.484 489.541 194.776V196H490.645V189.424H489.541V190.624C489.157 189.94 488.317 189.316 487.093 189.316C485.329 189.316 483.973 190.636 483.973 192.688ZM489.541 192.7C489.541 194.248 488.509 195.148 487.309 195.148C486.109 195.148 485.089 194.236 485.089 192.688C485.089 191.14 486.109 190.264 487.309 190.264C488.509 190.264 489.541 191.176 489.541 192.7ZM494.986 194.752L492.922 189.424H491.71L494.362 195.928L493.066 199.096H494.194L498.154 189.424H497.026L494.986 194.752Z" fill="#7B91B0"/>
<path d="M533.673 193.72C533.673 190.624 529.161 191.968 529.161 189.808C529.161 188.908 529.869 188.44 530.769 188.464C531.789 188.476 532.317 189.112 532.389 189.676H533.589C533.457 188.404 532.413 187.528 530.817 187.528C529.161 187.528 528.045 188.464 528.045 189.844C528.045 192.952 532.569 191.512 532.569 193.768C532.569 194.56 531.945 195.16 530.889 195.16C529.725 195.16 529.233 194.464 529.161 193.768H527.997C528.021 195.148 529.209 196.084 530.889 196.084C532.701 196.084 533.673 194.908 533.673 193.72ZM541.111 189.424H540.019V193.036C540.019 194.452 539.263 195.148 538.135 195.148C537.031 195.148 536.299 194.464 536.299 193.132V189.424H535.219V193.276C535.219 195.16 536.407 196.096 537.919 196.096C538.795 196.096 539.599 195.712 540.019 195.028V196H541.111V189.424ZM547.767 196H548.847V192.124C548.847 190.24 547.683 189.304 546.159 189.304C545.271 189.304 544.479 189.676 544.047 190.36V189.424H542.955V196H544.047V192.364C544.047 190.948 544.815 190.252 545.931 190.252C547.035 190.252 547.767 190.936 547.767 192.28V196ZM550.223 192.688C550.223 194.728 551.579 196.108 553.343 196.108C554.543 196.108 555.395 195.496 555.791 194.764V196H556.895V187.12H555.791V190.6C555.335 189.844 554.387 189.316 553.355 189.316C551.579 189.316 550.223 190.636 550.223 192.688ZM555.791 192.7C555.791 194.248 554.759 195.148 553.559 195.148C552.359 195.148 551.339 194.236 551.339 192.688C551.339 191.14 552.359 190.264 553.559 190.264C554.759 190.264 555.791 191.176 555.791 192.7ZM558.332 192.688C558.332 194.728 559.688 196.108 561.44 196.108C562.652 196.108 563.504 195.484 563.9 194.776V196H565.004V189.424H563.9V190.624C563.516 189.94 562.676 189.316 561.452 189.316C559.688 189.316 558.332 190.636 558.332 192.688ZM563.9 192.7C563.9 194.248 562.868 195.148 561.668 195.148C560.468 195.148 559.448 194.236 559.448 192.688C559.448 191.14 560.468 190.264 561.668 190.264C562.868 190.264 563.9 191.176 563.9 192.7ZM569.346 194.752L567.282 189.424H566.07L568.722 195.928L567.426 199.096H568.554L572.514 189.424H571.386L569.346 194.752Z" fill="#7B91B0"/>
<rect x="63" y="79" width="12" height="88" rx="2" fill="#0095FF"/>
<rect x="79" y="87" width="12" height="80" rx="2" fill="#00E096"/>
<rect x="145" y="59" width="12" height="108" rx="2" fill="#0095FF"/>
<rect x="161" y="92" width="12" height="75" rx="2" fill="#00E096"/>
<rect x="223" y="131" width="12" height="36" rx="2" fill="#0095FF"/>
<rect x="239" y="23" width="12" height="144" rx="2" fill="#00E096"/>
<rect x="302" y="67" width="12" height="100" rx="2" fill="#0095FF"/>
<rect x="318" y="127" width="12" height="40" rx="2" fill="#00E096"/>
<rect x="379" y="91" width="12" height="76" rx="2" fill="#0095FF"/>
<rect x="395" y="96" width="12" height="71" rx="2" fill="#00E096"/>
<rect x="456" y="61" width="12" height="106" rx="2" fill="#0095FF"/>
<rect x="472" y="82" width="12" height="85" rx="2" fill="#00E096"/>
<rect x="538" y="33" width="12" height="134" rx="2" fill="#0095FF"/>
<rect x="554" y="97" width="12" height="70" rx="2" fill="#00E096"/>
<defs>
<clipPath id="clip0_8121_276">
<rect width="86" height="16" fill="white" transform="translate(208 224)"/>
</clipPath>
<clipPath id="clip1_8121_276">
<rect width="87" height="16" fill="white" transform="translate(334 224)"/>
</clipPath>
</defs>
</svg>
